<?xml version="1.0" encoding="iso-8859-1"?>
<!-- Generator: Adobe Illustrator 19.0.0, SVG Export Plug-In . SVG Version: 6.00 Build 0)  -->
<svg version="1.1" id="Layer_1" xmlns="http://www.w3.org/2000/svg" xmlns:xlink="http://www.w3.org/1999/xlink" x="0px" y="0px"
	 viewBox="0 0 511.999 511.999" style="enable-background:new 0 0 511.999 511.999;" xml:space="preserve">
<path style="fill:#2BA5F7;" d="M233.63,455.311c25.02,0,50.04,9.55,69.129,28.64c5.987,5.987,11.03,12.544,15.139,19.511H149.35
	c4.109-6.966,9.152-13.523,15.139-19.511C183.579,464.861,208.599,455.311,233.63,455.311z"/>
<path style="fill:#2197D8;" d="M253.357,457.332c-6.504-1.334-13.114-2.022-19.727-2.022c-25.031,0-50.051,9.55-69.14,28.64
	c-5.987,5.987-11.03,12.544-15.139,19.511h39.461c4.109-6.966,9.152-13.523,15.139-19.511
	C217.995,469.906,235.251,461.045,253.357,457.332z"/>
<path style="fill:#96D0EA;" d="M363.738,62.346c35.185,35.082,53.842,82.265,53.887,130.108h-0.011H180.517
	c2.743-4.952,4.303-10.632,4.303-16.665c0-19.032-15.424-34.445-34.445-34.445s-34.445,15.413-34.445,34.445
	c0,6.033,1.559,11.713,4.303,16.665H49.681h-0.046c-0.034-36.004,10.484-72.396,32.442-104.303
	c57.609-83.711,172.157-104.86,255.856-47.251C347.335,47.366,355.941,54.56,363.738,62.346z"/>
<path style="fill:#F7B239;" d="M184.82,175.789c0,6.033-1.559,11.713-4.303,16.665h-60.284c-2.743-4.952-4.303-10.632-4.303-16.665
	c0-19.032,15.424-34.445,34.445-34.445C169.396,141.344,184.82,156.757,184.82,175.789z"/>
<path style="fill:#F95428;" d="M285.184,292.374l7.98,74.172c-38.065,12.988-80.023,13.421-119.078,0.023l7.991-74.194H285.184z"/>
<path style="fill:#F7B239;" d="M103.522,322.573c-12.032-11.986-22.117-25.396-30.199-39.761
	c30.802-9.323,65.156-16.096,102.163-19.67c78.031-7.536,154.695,0.41,218.406,19.681c-2.664,4.735-5.566,9.38-8.708,13.944
	c-23.301,33.842-55.902,57.461-92.02,69.778l-7.979-74.172H182.077l-7.991,74.194c-15.526-5.304-30.586-12.806-44.769-22.561
	C119.925,337.542,111.32,330.359,103.522,322.573z"/>
<path style="fill:#2BA5F7;" d="M417.625,192.454c0.034,30.859-7.684,62.015-23.734,90.37
	c-63.711-19.271-140.375-27.217-218.406-19.681c-37.006,3.574-71.36,10.347-102.163,19.67
	c-15.561-27.661-23.665-58.862-23.688-90.358h0.046h70.552h60.284h237.097L417.625,192.454L417.625,192.454z"/>
<g>
	
		<line style="fill:none;stroke:#2197D8;stroke-width:15;stroke-linecap:round;stroke-linejoin:round;stroke-miterlimit:10;" x1="298.872" y1="122.334" x2="327.193" y2="122.334"/>
	
		<line style="fill:none;stroke:#2197D8;stroke-width:15;stroke-linecap:round;stroke-linejoin:round;stroke-miterlimit:10;" x1="313.032" y1="135.219" x2="341.365" y2="135.219"/>
	
		<line style="fill:none;stroke:#2197D8;stroke-width:15;stroke-linecap:round;stroke-linejoin:round;stroke-miterlimit:10;" x1="126.249" y1="101.73" x2="154.592" y2="101.73"/>
	
		<line style="fill:none;stroke:#2197D8;stroke-width:15;stroke-linecap:round;stroke-linejoin:round;stroke-miterlimit:10;" x1="145.577" y1="88.845" x2="173.909" y2="88.845"/>
</g>
<path style="fill:#333333;" d="M401.516,360.344c92.572-92.573,92.572-243.203,0-335.776c-3.335-3.333-8.74-3.335-12.074,0
	l-25.853,25.853c-6.464-5.908-13.397-11.45-20.81-16.552C255.334-26.315,135.227-4.139,75.04,83.307
	c-29.155,42.36-40.069,93.539-30.732,144.107c6.656,36.047,23.04,68.701,47.241,95.047l-25.81,25.81
	c-1.602,1.602-2.501,3.772-2.501,6.036s0.899,4.436,2.501,6.036c42.826,42.826,99.134,67.26,159.351,69.374v17.398
	c-25.178,1.987-48.583,12.743-66.636,30.797c-6.374,6.374-11.91,13.512-16.452,21.213c-1.557,2.64-1.58,5.91-0.06,8.571
	c1.52,2.661,4.349,4.303,7.414,4.303h168.544c3.063,0,5.894-1.643,7.414-4.303s1.497-5.932-0.06-8.571
	c-4.541-7.701-10.076-14.838-16.451-21.213c-18.055-18.053-41.458-28.809-66.637-30.797v-17.398
	C302.382,427.604,358.689,403.171,401.516,360.344z M89.106,92.987c33.985-49.378,88.932-75.918,144.777-75.918
	c34.281,0,68.902,10.003,99.214,30.866c46.782,32.199,73.053,83.218,75.686,135.985H192.579c0.516-2.673,0.779-5.398,0.779-8.134
	c0-23.701-19.282-42.982-42.982-42.982s-42.982,19.282-42.982,42.982c0,2.736,0.264,5.462,0.779,8.134H58.337
	C59.849,151.616,70.314,120.291,89.106,92.987z M125.78,183.92c-0.863-2.612-1.312-5.363-1.312-8.134
	c0-14.286,11.622-25.908,25.908-25.908c14.286,0,25.908,11.622,25.908,25.908c0,2.773-0.45,5.523-1.312,8.134H125.78z
	 M58.373,200.995h350.435c-1.153,24.486-7.426,48.954-19.153,71.714c-65.489-18.752-141.494-25.172-215.048-18.064
	c-34.228,3.306-66.846,9.367-97.101,18.024c-7.699-15.036-13.253-31.277-16.407-48.355
	C59.665,216.543,58.767,208.756,58.373,200.995z M300.468,354.604l-6.798-63.143c-0.467-4.336-4.127-7.623-8.488-7.623H182.078
	c-4.362,0-8.022,3.287-8.488,7.623l-6.804,63.214c-11.259-4.642-22.199-10.521-32.628-17.698
	c-19.316-13.294-35.462-29.954-47.841-49.056c28.096-7.756,58.287-13.226,89.932-16.282c69.922-6.758,142.037-0.961,204.555,16.312
	c-0.865,1.332-1.748,2.658-2.655,3.975C358.152,320.981,330.892,342.118,300.468,354.604z M283.924,360.448
	c-32.432,9.676-67.458,9.982-100.595,0.091l6.417-59.626h87.768L283.924,360.448z M103.651,334.506
	c6.505,5.928,13.45,11.462,20.825,16.537c33.267,22.897,71.246,33.87,108.871,33.87c61.274,0,121.579-29.129,158.866-83.307
	c51.743-75.178,42.609-174.496-16.537-239.125l19.687-19.687c79.954,86.312,77.976,221.579-5.921,305.477
	c-41.62,41.62-96.955,64.541-155.814,64.541c-56.003,0-108.82-20.754-149.664-58.618L103.651,334.506z M301.311,494.926H165.942
	c1.464-1.699,2.993-3.348,4.584-4.939c16.855-16.855,39.265-26.137,63.101-26.137s46.246,9.283,63.101,26.137
	C298.32,491.579,299.849,493.226,301.311,494.926z"/>
<g>
	<path style="fill:#FFFFFF;" d="M385.459,234.874c-0.616,0-1.241-0.067-1.867-0.207c-4.602-1.027-7.5-5.589-6.475-10.191
		c2.344-10.5,3.524-21.261,3.512-31.985c-0.036-38.842-15.72-76.734-43.029-103.962c-6.312-6.304-13.255-12.073-20.641-17.152
		c-16.69-11.488-35.114-19.278-54.761-23.158c-4.625-0.913-7.635-5.404-6.722-10.03c0.913-4.625,5.397-7.636,10.03-6.722
		c21.946,4.334,42.514,13.028,61.131,25.842c8.236,5.664,15.983,12.101,23.024,19.133c30.488,30.399,48.001,72.693,48.042,116.03
		c0.015,11.976-1.304,23.995-3.92,35.721C392.897,232.169,389.37,234.874,385.459,234.874z"/>
	<circle style="fill:#FFFFFF;" cx="233.795" cy="36.913" r="8.537"/>
</g>
<g>
</g>
<g>
</g>
<g>
</g>
<g>
</g>
<g>
</g>
<g>
</g>
<g>
</g>
<g>
</g>
<g>
</g>
<g>
</g>
<g>
</g>
<g>
</g>
<g>
</g>
<g>
</g>
<g>
</g>
</svg>
